<svg xmlns="http://www.w3.org/2000/svg" viewBox="0 0 46.42 29.4"><defs><style>.a{stroke:#000;stroke-miterlimit:10;stroke-width:2px;}</style></defs><title>logo</title><path class="a" d="M43,16.79C37.37,17.07,24.26,33.55,23.87,34c-1.75,4.41-1.79,7.78-.3,8.66s4.07-.35,7.88-3.84a.46.46,0,0,1,.61,0,.34.34,0,0,1,0,.54c-3.76,3.53-7.13,5-9,4-1.53-.8-2-3.6-.67-7.81-3.1,2.87-9.88,8.05-14.91,8.06C5.1,43.53,3,42.31,1.85,39a.38.38,0,0,1,.35-.46.39.39,0,0,1,.48.27c1.19,3.25,3.12,4.28,5.39,4C13.9,42.11,22.16,31.91,24.6,29c1.8-3.79,4.72-11.23-3.12-11.68A.44.44,0,0,1,21,17a.41.41,0,0,1,.44-.38c6.52.34,7.06,4.32,5.44,9.68,2.06-2.41,11-9.89,16.06-10,1.92,0,3.24,1.1,3.28,4.25a.45.45,0,0,1-.48.34.4.4,0,0,1-.39-.38C45.39,17.75,44.42,16.71,43,16.79Z" transform="translate(-0.84 -15.22)"/></svg>